<?xml version="1.0" encoding="utf-8"?>
<!-- Generator: Adobe Illustrator 26.3.1, SVG Export Plug-In . SVG Version: 6.00 Build 0)  -->
<svg version="1.1" id="Capa_1" xmlns="http://www.w3.org/2000/svg" xmlns:xlink="http://www.w3.org/1999/xlink" x="0px" y="0px"
	 viewBox="0 0 524.9 524.9" style="enable-background:new 0 0 524.9 524.9;" xml:space="preserve">
<style type="text/css">
	.st0{fill:#FFFFFF;stroke:#000000;stroke-miterlimit:10;}
	.st1{fill-rule:evenodd;clip-rule:evenodd;}
</style>
<circle class="st0" cx="262.5" cy="261.9" r="235"/>
<path class="st1" d="M448.1,76.8C345.6-25.6,179.3-25.6,76.8,76.8s-102.4,268.8,0,371.2s268.8,102.5,371.2,0S550.5,179.3,448.1,76.8
	z M423.3,101.6c88.8,88.8,88.8,232.9,0,321.7c-88.8,88.8-232.9,88.8-321.7,0s-88.8-232.9,0-321.7S334.5,12.8,423.3,101.6z
	 M237.7,262.5l-68.2-68.2c-6.8-6.8-6.8-17.9,0-24.8c6.8-6.8,17.9-6.8,24.8,0l68.2,68.2l68.2-68.2c6.8-6.8,17.9-6.8,24.8,0
	c6.8,6.8,6.8,17.9,0,24.8l-68.2,68.2l68.2,68.2c6.8,6.8,6.8,17.9,0,24.8c-6.8,6.8-17.9,6.8-24.8,0l-68.2-68.2l-68.2,68.2
	c-6.8,6.8-17.9,6.8-24.8,0c-6.8-6.8-6.8-17.9,0-24.8L237.7,262.5L237.7,262.5z"/>
</svg>
