<?xml version="1.0" encoding="UTF-8"?><svg id="Capa_1" xmlns="http://www.w3.org/2000/svg" viewBox="0 0 432.45 484.66"><defs><style>.cls-1{fill:#fff;}</style></defs><path class="cls-1" d="M216,51.67h-2.8V22.39c0-5.66-2.14-11.1-5.99-15.24-3.85-4.14-9.12-6.68-14.77-7.09-5.64-.41-11.23,1.32-15.64,4.86L88.82,75.25c-5.32,4.25-8.42,10.69-8.42,17.5s3.1,13.25,8.42,17.5l87.98,70.39c4.43,3.54,10.03,5.28,15.68,4.85,5.65-.42,10.93-2.97,14.78-7.14,3.84-4.16,5.97-9.63,5.95-15.3v-29.23h2.8c34.93,0,68.49,13.58,93.57,37.89,25.08,24.31,39.72,57.43,40.8,92.34,1.09,34.91-11.46,68.88-34.99,94.7-23.52,25.82-56.18,41.46-91.04,43.62-34.86,2.16-69.2-9.34-95.73-32.05-26.53-22.72-43.17-54.88-46.4-89.66-.52-5.57-3.11-10.75-7.25-14.52-4.15-3.76-9.55-5.84-15.15-5.81H22.46c-6.24-.02-12.21,2.57-16.46,7.14-4.25,4.57-6.4,10.71-5.93,16.94,4.23,56.32,30.31,108.75,72.66,146.11,42.35,37.36,97.63,56.7,154.04,53.87,56.41-2.82,109.48-27.57,147.89-68.97,38.41-41.4,59.13-96.18,57.72-152.64-1.4-56.46-24.82-110.14-65.24-149.57-40.43-39.44-94.66-61.52-151.14-61.54h0Z"/></svg>